<?xml version="1.0" standalone="no"?>
<!DOCTYPE svg PUBLIC "-//W3C//DTD SVG 20010904//EN"
 "http://www.w3.org/TR/2001/REC-SVG-20010904/DTD/svg10.dtd">
<svg version="1.0" xmlns="http://www.w3.org/2000/svg"
 width="128.000000pt" height="128.000000pt" viewBox="0 0 128.000000 128.000000"
 preserveAspectRatio="xMidYMid meet">

<g transform="translate(0.000000,128.000000) scale(0.100000,-0.100000)"
fill="#000000" stroke="none">
<path d="M180 960 c-11 -11 -20 -29 -20 -40 0 -11 9 -29 20 -40 19 -19 33 -20
460 -20 427 0 441 1 460 20 25 25 25 55 0 80 -19 19 -33 20 -460 20 -427 0
-441 -1 -460 -20z"/>
<path d="M180 680 c-11 -11 -20 -29 -20 -40 0 -11 9 -29 20 -40 19 -19 33 -20
460 -20 427 0 441 1 460 20 25 25 25 55 0 80 -19 19 -33 20 -460 20 -427 0
-441 -1 -460 -20z"/>
<path d="M180 400 c-11 -11 -20 -29 -20 -40 0 -11 9 -29 20 -40 19 -19 33 -20
460 -20 427 0 441 1 460 20 25 25 25 55 0 80 -19 19 -33 20 -460 20 -427 0
-441 -1 -460 -20z"/>
</g>
</svg>
